HIERARCHY
ROOT Hips
{
    OFFSET 0.000000 0.000000 0.000000
    CHANNELS 6 Xposition Yposition Zposition Zrotation Xrotation Yrotation
    JOINT Chest
    {
        OFFSET -0.000000 0.078597 0.000000
        CHANNELS 3 Zrotation Xrotation Yrotation
        JOINT Chest2
        {
            OFFSET -0.000000 0.230468 0.000000
            CHANNELS 3 Zrotation Xrotation Yrotation
            JOINT Neck
            {
                OFFSET -0.000000 0.249638 0.000000
                CHANNELS 3 Zrotation Xrotation Yrotation
                JOINT Head
                {
                    OFFSET -0.000000 0.103998 0.019170
                    CHANNELS 3 Zrotation Xrotation Yrotation
                    End Site
                    {
                        OFFSET -0.000000 0.191701 0.000000
                    }
                }
            }
            JOINT LeftCollar
            {
                OFFSET 0.038274 0.205938 -0.001496
                CHANNELS 3 Zrotation Xrotation Yrotation
                JOINT LeftShoulder
                {
                    OFFSET 0.132388 0.000000 0.000000
                    CHANNELS 3 Zrotation Xrotation Yrotation
                    JOINT LeftElbow
                    {
                        OFFSET 0.250301 0.000000 0.000000
                        CHANNELS 3 Zrotation Xrotation Yrotation
                        JOINT LeftWrist
                        {
                            OFFSET 0.285291 0.000000 0.000000
                            CHANNELS 3 Zrotation Xrotation Yrotation
                            End Site
                            {
                                OFFSET 0.000000 -0.143776 0.000000
                            }
                        }
                    }
                }
            }
            JOINT RightCollar
            {
                OFFSET -0.038406 0.205938 -0.001496
                CHANNELS 3 Zrotation Xrotation Yrotation
                JOINT RightShoulder
                {
                    OFFSET -0.132388 0.000000 0.000000
                    CHANNELS 3 Zrotation Xrotation Yrotation
                    JOINT RightElbow
                    {
                        OFFSET -0.250301 0.000000 0.000000
                        CHANNELS 3 Zrotation Xrotation Yrotation
                        JOINT RightWrist
                        {
                            OFFSET -0.285291 0.000000 0.000000
                            CHANNELS 3 Zrotation Xrotation Yrotation
                            End Site
                            {
                                OFFSET -0.000000 -0.143776 0.000000
                            }
                        }
                    }
                }
            }
        }
    }
    JOINT LeftHip
    {
        OFFSET 0.095851 0.000000 0.000000
        CHANNELS 3 Zrotation Xrotation Yrotation
        JOINT LeftKnee
        {
            OFFSET -0.000000 -0.406444 0.000000
            CHANNELS 3 Zrotation Xrotation Yrotation
            JOINT LeftAnkle
            {
                OFFSET -0.000000 -0.408443 0.000000
                CHANNELS 3 Zrotation Xrotation Yrotation
                JOINT LeftToe
                {
                    OFFSET -0.000000 -0.062303 0.143776
                    CHANNELS 3 Zrotation Xrotation Yrotation
                    End Site
                    {
                        OFFSET -0.000000 0.000000 0.038340
                    }
                }
            }
        }
    }
    JOINT RightHip
    {
        OFFSET -0.095851 0.000000 0.000000
        CHANNELS 3 Zrotation Xrotation Yrotation
        JOINT RightKnee
        {
            OFFSET -0.000000 -0.406444 0.000000
            CHANNELS 3 Zrotation Xrotation Yrotation
            JOINT RightAnkle
            {
                OFFSET -0.000000 -0.408443 0.000000
                CHANNELS 3 Zrotation Xrotation Yrotation
                JOINT RightToe
                {
                    OFFSET -0.000000 -0.062303 0.143776
                    CHANNELS 3 Zrotation Xrotation Yrotation
                    End Site
                    {
                        OFFSET -0.000000 0.000000 0.038340
                    }
                }
            }
        }
    }
}
MOTION
Frames:    14
Frame Time:    0.016667
0.099793    0.892822    1.615764    -4.846270    1.868009    -98.191101    -0.543867    -3.092119    -1.512728    -2.702195    7.118368    -0.328394    4.860349    8.696612    -24.592045    7.182786    -2.361490    -25.073488    2.640678    5.073359    -7.224041    -56.340992    40.762264    -19.273785    -4.137036    -5.946950    -9.185669    76.599098    -1.771334    6.069466    -1.188894    -11.902093    15.905807    40.194550    6.754992    8.147412    -45.979435    -44.722538    79.256989    -96.064430    0.067955    -8.027677    6.612786    5.179213    2.295413    -3.072242    12.302059    7.823739    -4.285925    -15.434608    11.648482    0.000000    0.000000    0.000000    -4.050221    5.924140    2.443684    1.336289    4.755536    2.407792    3.431859    -9.977282    -13.883049    0.000000    0.000000    0.000000    
0.099798    0.892850    1.615814    -4.856125    1.871813    -98.129112    -0.459387    -3.138155    -1.416669    -2.979291    7.098248    -0.280316    5.247581    8.845425    -24.713337    6.994473    -2.507119    -25.083115    2.960146    5.127681    -7.411582    -56.248543    41.016102    -19.445433    -3.958537    -6.315273    -9.536265    76.644638    -1.844661    6.427536    -0.899970    -11.946146    15.759303    40.478786    4.744678    9.488872    -47.992165    -44.348663    74.550102    -96.054863    0.081691    -9.120186    6.619992    5.176009    2.237120    -3.079164    12.296699    7.880063    -4.281819    -15.425883    11.611488    0.000000    0.000000    0.000000    -4.060250    6.023932    2.515166    1.367688    4.594560    2.287206    3.423513    -9.894684    -13.879480    0.000000    0.000000    0.000000    
0.100169    0.892950    1.616241    -4.842968    1.889397    -98.244659    -0.415218    -3.080370    -1.312455    -2.977871    7.002527    -0.248747    5.147035    8.857417    -24.724117    7.055452    -2.434524    -25.124989    2.915490    5.022408    -7.405047    -56.242378    41.046604    -19.375849    -3.872662    -6.341836    -9.842513    76.534973    -1.949086    6.443188    -0.823155    -12.218264    15.826389    40.759232    3.272023    10.512948    -51.419266    -43.419041    68.641701    -96.381638    0.011076    -9.137312    6.559510    5.158634    2.311875    -3.005965    12.300775    7.939327    -4.287846    -15.400035    11.602643    0.000000    0.000000    0.000000    -4.034544    6.031705    2.432296    1.259113    4.449395    2.117842    3.575003    -9.714927    -13.512263    0.000000    0.000000    0.000000    
0.100311    0.893077    1.616380    -4.824741    1.923826    -98.274048    -0.382760    -3.059068    -1.234480    -2.994256    6.919548    -0.224240    5.078173    8.837078    -24.755220    7.151935    -2.362958    -25.185938    2.914952    4.957403    -7.440691    -56.187828    41.356499    -19.366463    -3.616102    -6.468978    -10.129566    76.358185    -1.995363    6.548785    -0.753608    -12.417142    15.909704    40.766445    1.784054    11.399843    -53.810760    -42.009129    63.543785    -97.533882    0.541476    -9.025877    6.588816    5.185519    2.306517    -3.018808    12.216667    7.959569    -4.315161    -15.379401    11.597586    0.000000    0.000000    0.000000    -4.032414    6.039393    2.718478    1.323686    4.363636    1.933604    3.624414    -9.607804    -13.620062    0.000000    0.000000    0.000000    
0.100305    0.893391    1.616824    -4.897827    1.871258    -98.243439    -0.374946    -2.964431    -1.211709    -3.110632    6.842237    -0.211832    5.043418    8.682198    -24.779228    7.089444    -2.201860    -25.228260    2.884895    4.929471    -7.507665    -56.124592    41.380898    -19.291656    -3.545158    -6.578475    -10.356524    76.546295    -2.157003    6.643244    -0.700052    -12.442553    15.936247    40.582226    1.028175    12.306061    -55.504211    -40.822353    59.116379    -98.020470    1.333314    -9.388741    6.477064    5.288451    2.223557    -2.997928    12.100500    8.031398    -4.312150    -15.206002    11.659627    0.000000    0.000000    0.000000    -4.170827    6.143214    2.831798    1.427295    4.279126    1.931920    3.609004    -9.480179    -13.775143    0.000000    0.000000    0.000000    
0.100481    0.893481    1.617017    -4.879353    1.876807    -98.237053    -0.335141    -2.956588    -1.189532    -3.203117    6.776592    -0.201130    5.079127    8.695999    -24.852242    7.119126    -2.277404    -25.293352    2.922670    4.975365    -7.554538    -56.051357    41.407963    -19.333790    -3.457839    -6.567941    -10.506697    76.663986    -2.215538    6.624810    -0.559686    -12.131352    15.895283    40.074074    0.551228    13.378069    -56.002857    -40.048294    55.878521    -97.365166    1.384010    -10.411351    6.485558    5.267649    2.222409    -3.021436    12.074542    8.056012    -4.281797    -15.155636    11.679966    0.000000    0.000000    0.000000    -4.160201    6.138330    2.718807    1.395179    4.228557    2.097378    3.647428    -9.392104    -13.848589    0.000000    0.000000    0.000000    
0.100636    0.893558    1.617197    -4.856813    1.879724    -98.221756    -0.272896    -2.954525    -1.196880    -3.333559    6.726056    -0.197858    5.122204    8.670201    -24.955280    7.107791    -2.353480    -25.385311    2.976458    4.989336    -7.579606    -56.028664    41.331738    -19.323004    -3.431225    -6.616264    -10.609085    76.723907    -2.309819    6.663932    -0.630028    -12.225909    15.817169    39.832119    0.446134    13.789110    -55.210602    -39.622169    54.655159    -96.481277    1.044229    -11.333424    6.494887    5.222701    2.275019    -3.032078    12.093072    7.991636    -4.260191    -15.132095    11.687493    0.000000    0.000000    0.000000    -4.149632    6.157148    2.746563    1.366548    4.128088    2.038965    3.630597    -9.328430    -13.829103    0.000000    0.000000    0.000000    
0.101215    0.893457    1.617564    -4.722999    1.897313    -98.250786    -0.100717    -2.978032    -1.205370    -3.574781    6.601955    -0.192037    5.238210    8.515331    -25.051647    6.933143    -2.324409    -25.451599    3.122389    5.017923    -7.587297    -56.071499    40.884819    -19.302610    -3.646546    -6.577202    -10.655028    76.708633    -2.319107    6.644839    -0.636321    -12.281549    15.767529    39.467583    0.602110    13.860564    -54.372978    -39.056000    54.582848    -96.038422    1.009140    -11.251223    6.526408    5.014701    2.357867    -3.056651    12.188110    7.969734    -4.261280    -15.225886    11.641184    0.000000    0.000000    0.000000    -4.132009    5.968597    2.727262    1.354331    4.148904    2.021803    3.689235    -9.325519    -13.787473    0.000000    0.000000    0.000000    
0.101162    0.893497    1.617702    -4.760397    1.887462    -98.213120    0.001965    -2.923764    -1.253101    -3.818374    6.564205    -0.196038    5.395021    8.534011    -25.200073    6.908954    -2.635103    -25.549616    3.323548    5.097474    -7.630599    -56.114399    40.803391    -19.313522    -3.690603    -6.504148    -10.659937    76.797462    -2.318649    6.577978    -0.755720    -12.426094    15.661988    39.361542    1.568979    13.603851    -54.538223    -38.753094    54.834511    -95.534019    1.081206    -10.582346    6.512186    5.024426    2.419131    -3.055266    12.230612    7.870645    -4.225011    -15.233495    11.661731    0.000000    0.000000    0.000000    -4.135477    6.044438    2.675188    1.314245    4.083999    1.981674    3.811721    -9.347591    -13.861656    0.000000    0.000000    0.000000    
0.101463    0.893532    1.618165    -4.763636    1.890873    -98.289787    0.204085    -2.878538    -1.247613    -4.114089    6.572358    -0.178725    5.554217    8.385190    -25.315008    6.744309    -2.759020    -25.618805    3.465943    5.163117    -7.653843    -56.046856    40.752163    -19.398155    -3.725837    -6.534074    -10.589703    76.695274    -2.318305    6.606780    -0.844157    -12.573532    15.716529    39.194000    2.519674    12.828714    -54.713573    -38.251389    56.399658    -95.470947    1.049778    -8.727969    6.467189    5.002304    2.476091    -3.041055    12.261762    7.971852    -4.216914    -15.226631    11.604959    0.000000    0.000000    0.000000    -4.187695    6.010721    2.684196    1.325824    4.088552    2.000100    3.852428    -9.246094    -13.670290    0.000000    0.000000    0.000000    
0.101263    0.893509    1.618318    -4.825867    1.862719    -98.258675    0.337428    -2.919647    -1.364627    -4.424237    6.736185    -0.194693    5.725901    8.329386    -25.423082    6.684458    -3.003893    -25.677364    3.713274    5.127049    -7.720556    -56.210320    40.760410    -19.282166    -3.667568    -6.757935    -10.487568    76.516281    -2.316402    6.818397    -0.844244    -12.495912    15.722475    39.004650    3.615673    12.193263    -54.783401    -38.143677    58.921474    -95.772469    1.125766    -6.698092    6.432283    5.087179    2.523431    -3.056311    12.217187    7.936134    -4.163315    -15.194796    11.616491    0.000000    0.000000    0.000000    -4.242569    6.115597    2.637287    1.321414    4.032784    1.998848    4.013316    -9.253891    -13.645547    0.000000    0.000000    0.000000    
0.101500    0.893519    1.618810    -4.840304    1.906137    -98.452103    0.627430    -2.890687    -1.289558    -4.817649    6.800415    -0.146368    6.019650    8.238852    -25.525494    6.479754    -3.184731    -25.697908    3.801463    5.359753    -7.853713    -55.962498    40.705425    -19.449186    -3.715278    -6.725544    -10.393293    76.906578    -2.090857    6.821196    -0.830224    -12.310924    15.596301    38.805206    5.536351    11.694681    -55.442200    -38.585438    61.122597    -94.824608    0.802265    -5.075664    6.415352    5.128225    2.653751    -3.050726    12.222063    8.051005    -4.274223    -15.210036    11.578689    0.000000    0.000000    0.000000    -4.276872    6.047448    2.744607    1.335657    4.090430    2.058263    4.213148    -9.273993    -13.538906    0.000000    0.000000    0.000000    
0.101561    0.893526    1.619166    -4.848466    1.898166    -98.594223    0.789331    -2.972427    -1.254535    -5.121946    6.969243    -0.110609    6.243339    8.209470    -25.594164    6.407096    -3.298933    -25.711285    4.016150    5.237771    -7.950133    -56.113243    40.844742    -19.373240    -3.702192    -6.704900    -10.130061    76.694611    -2.090507    6.786983    -0.730704    -12.176638    15.590739    38.584785    6.846999    10.941968    -54.763779    -38.884281    64.933624    -94.613907    0.583321    -3.015989    6.374175    5.141667    2.778794    -3.073622    12.252888    8.082268    -4.130262    -15.229801    11.601919    0.000000    0.000000    0.000000    -4.332740    6.024598    2.757586    1.309940    4.082664    2.049613    4.370868    -9.259485    -13.368716    0.000000    0.000000    0.000000    
0.101554    0.893450    1.619421    -4.883545    1.896251    -98.750084    0.891294    -3.126215    -1.228111    -5.338912    7.288422    -0.074886    6.434525    8.189089    -25.647894    6.383127    -3.365998    -25.722607    4.076228    5.334064    -8.084344    -55.900261    40.756893    -19.555307    -3.786858    -6.862713    -9.831962    76.694115    -2.279938    6.920176    -0.569192    -12.004538    15.656224    38.345924    9.052092    10.427628    -55.739674    -39.388439    66.819557    -93.806480    0.117145    -1.192864    6.377407    5.209485    2.674504    -3.216733    12.243336    8.406760    -4.206817    -15.242523    11.575801    0.000000    0.000000    0.000000    -4.423638    6.102705    2.760016    1.449792    3.961589    1.729594    4.487600    -9.298787    -13.018641    0.000000    0.000000    0.000000    
